<svg xmlns="http://www.w3.org/2000/svg" xmlns:xlink="http://www.w3.org/1999/xlink" version="1.1" width="1000" height="1000" viewBox="0 0 1000 1000" xml:space="preserve">
<desc>Created with Fabric.js 3.5.0</desc>
<defs>
</defs>
<rect x="0" y="0" width="100%" height="100%" fill="#ffffff" fill-opacity="0"/>
<g transform="matrix(2.2727 0 0 2.2727 499.9945 499.9945)" id="383107">
<g style="">
		<g transform="matrix(11.1111 0 0 11.1111 -134.2223 -0.0001)">
<path style="stroke: none; stroke-width: 1; stroke-dasharray: none; stroke-linecap: butt; stroke-dashoffset: 0; stroke-linejoin: miter; stroke-miterlimit: 4; is-custom-font: none; font-file-url: none; fill: rgb(0,0,0); fill-rule: nonzero; opacity: 1;" transform=" translate(-5.92, -18)" d="M 5.92 2 a 1 1 0 0 0 -1 1 V 33 a 1 1 0 0 0 2 0 V 3 A 1 1 0 0 0 5.92 2 Z" stroke-linecap="round"/>
</g>
		<g transform="matrix(11.1111 0 0 11.1111 22.2221 -67.4244)">
<path style="stroke: none; stroke-width: 1; stroke-dasharray: none; stroke-linecap: butt; stroke-dashoffset: 0; stroke-linejoin: miter; stroke-miterlimit: 4; is-custom-font: none; font-file-url: none; fill: rgb(0,0,0); fill-rule: nonzero; opacity: 1;" transform=" translate(-20, -11.9318)" d="M 30.5 3.82 a 1 1 0 0 0 -1 0 a 14.9 14.9 0 0 1 -6.13 1.16 a 13.11 13.11 0 0 1 -5.18 -1.49 A 12.78 12.78 0 0 0 13.2 2 A 10.86 10.86 0 0 0 9 2.85 V 20 a 8.8 8.8 0 0 1 4.25 -1.08 a 11.22 11.22 0 0 1 4.2 1.28 a 14.84 14.84 0 0 0 6 1.66 a 16.79 16.79 0 0 0 7 -1.37 a 1 1 0 0 0 0.55 -0.89 V 4.67 A 1 1 0 0 0 30.5 3.82 Z" stroke-linecap="round"/>
</g>
		<g transform="matrix(11.1111 0 0 11.1111 -0.0002 -0.0002)">
<rect style="stroke: none; stroke-width: 1; stroke-dasharray: none; stroke-linecap: butt; stroke-dashoffset: 0; stroke-linejoin: miter; stroke-miterlimit: 4; is-custom-font: none; font-file-url: none; fill: rgb(0,0,0); fill-opacity: 0; fill-rule: nonzero; opacity: 1;" x="-18" y="-18" rx="0" ry="0" width="36" height="36"/>
</g>
</g>
</g>
<g transform="matrix(1 0 0 1 500 500)" id="298078">
<path style="stroke: none; stroke-width: 1; stroke-dasharray: none; stroke-linecap: butt; stroke-dashoffset: 0; stroke-linejoin: miter; stroke-miterlimit: 4; is-custom-font: none; font-file-url: none; fill: rgb(0,0,0); fill-rule: nonzero; opacity: 1;" vector-effect="non-scaling-stroke" transform=" translate(-12.007, -12.0008)" d="M 20.496 9.026 c -2.183 -0.93 -5.116 -1.53 -8.25 -1.695 c -0.5 -0.03 -0.987 -0.04 -1.45 -0.04 c 2.318 -2.83 4.802 -4.73 6.437 -4.79 c 0.322 -0.013 0.595 0.055 0.813 0.196 c 0.706 0.458 0.905 1.768 0.545 3.59 c -0.04 0.25 0.12 0.493 0.36 0.54 c 0.25 0.05 0.49 -0.11 0.54 -0.36 c 0.45 -2.28 0.12 -3.846 -0.94 -4.538 c -0.38 -0.248 -0.84 -0.365 -1.35 -0.346 c -2.05 0.077 -4.94 2.3 -7.59 5.72 c -1.154 0.035 -2.24 0.13 -3.232 0.287 c -0.646 -2.897 -0.39 -4.977 0.594 -5.477 c 0.138 -0.073 0.285 -0.11 0.457 -0.124 c 0.697 -0.054 1.66 0.395 2.71 1.27 c 0.194 0.16 0.486 0.14 0.646 -0.06 c 0.163 -0.195 0.134 -0.48 -0.06 -0.645 C 9.466 1.51 8.304 1 7.354 1.07 c -0.286 0.025 -0.556 0.098 -0.803 0.22 c -1.19 0.607 -1.67 2.327 -1.37 4.838 c 0.07 0.52 0.16 1.062 0.29 1.62 C 2.19 8.404 0.1 9.718 0.01 11.372 c -0.06 1.17 0.865 2.284 2.68 3.222 c 0.224 0.115 0.502 0.03 0.62 -0.2 c 0.114 -0.224 0.03 -0.5 -0.2 -0.616 C 1.66 13.032 0.88 12.19 0.927 11.42 c 0.05 -1.08 1.772 -2.19 4.76 -2.78 c 0.27 0.994 0.62 2.032 1.05 3.09 c -1.018 1.888 -1.756 3.747 -2.137 5.4 c -0.56 2.465 -0.26 4.22 0.86 4.948 c 0.36 0.234 0.78 0.35 1.247 0.35 c 0.935 0 2.067 -0.46 3.347 -1.372 c 0.21 -0.15 0.256 -0.435 0.11 -0.64 c -0.147 -0.206 -0.433 -0.256 -0.64 -0.106 c -1.544 1.103 -2.844 1.472 -3.562 1.003 c -0.76 -0.495 -0.926 -1.943 -0.46 -3.976 c 0.32 -1.386 0.907 -2.93 1.708 -4.52 c 0.2 0.438 0.41 0.876 0.63 1.313 c 1.425 2.796 3.17 5.227 4.91 6.845 c 1.386 1.29 2.674 1.963 3.735 1.963 c 0.35 0 0.68 -0.075 0.976 -0.223 c 1.145 -0.585 1.64 -2.21 1.398 -4.575 c -0.224 -2.213 -1.06 -4.91 -2.354 -7.6 c -0.11 -0.227 -0.384 -0.323 -0.61 -0.216 c -0.23 0.11 -0.33 0.385 -0.22 0.612 c 2.69 5.602 2.88 10.19 1.37 10.96 c -1.59 0.813 -5.424 -2.355 -8.39 -8.18 c -0.34 -0.655 -0.637 -1.3 -0.9 -1.93 c 0.34 -0.608 0.7 -1.22 1.095 -1.83 c 0.395 -0.604 0.806 -1.188 1.224 -1.745 h 0.394 c 0.54 0 1.126 0.01 1.734 0.048 c 6.53 0.343 10.975 2.56 10.884 4.334 c -0.04 0.765 -0.924 1.538 -2.425 2.12 c -0.234 0.096 -0.352 0.36 -0.26 0.596 c 0.07 0.18 0.24 0.292 0.426 0.292 c 0.058 0 0.114 -0.01 0.167 -0.03 c 1.905 -0.74 2.95 -1.756 3.01 -2.93 c 0.07 -1.33 -1.17 -2.61 -3.5 -3.6 v -0.01 z M 8.08 9.45 c -0.27 0.415 -0.52 0.827 -0.764 1.244 c -0.292 -0.768 -0.532 -1.51 -0.723 -2.215 c 0.713 -0.11 1.485 -0.19 2.31 -0.24 c -0.28 0.39 -0.554 0.794 -0.82 1.21 v -0.01 z M 12.005 10.625 A 1.375 1.375 0 1 0 12.005 13.375 A 1.375 1.375 0 1 0 12.005 10.625 z" stroke-linecap="round"/>
</g>
<g transform="matrix(12.622 0 0 12.622 554.2687 344.7798)" id="66475">
<path style="stroke: none; stroke-width: 1; stroke-dasharray: none; stroke-linecap: butt; stroke-dashoffset: 0; stroke-linejoin: miter; stroke-miterlimit: 4; is-custom-font: none; font-file-url: none; fill: rgb(255,255,255); fill-rule: nonzero; opacity: 1;" vector-effect="non-scaling-stroke" transform=" translate(-12.007, -12.0008)" d="M 20.496 9.026 c -2.183 -0.93 -5.116 -1.53 -8.25 -1.695 c -0.5 -0.03 -0.987 -0.04 -1.45 -0.04 c 2.318 -2.83 4.802 -4.73 6.437 -4.79 c 0.322 -0.013 0.595 0.055 0.813 0.196 c 0.706 0.458 0.905 1.768 0.545 3.59 c -0.04 0.25 0.12 0.493 0.36 0.54 c 0.25 0.05 0.49 -0.11 0.54 -0.36 c 0.45 -2.28 0.12 -3.846 -0.94 -4.538 c -0.38 -0.248 -0.84 -0.365 -1.35 -0.346 c -2.05 0.077 -4.94 2.3 -7.59 5.72 c -1.154 0.035 -2.24 0.13 -3.232 0.287 c -0.646 -2.897 -0.39 -4.977 0.594 -5.477 c 0.138 -0.073 0.285 -0.11 0.457 -0.124 c 0.697 -0.054 1.66 0.395 2.71 1.27 c 0.194 0.16 0.486 0.14 0.646 -0.06 c 0.163 -0.195 0.134 -0.48 -0.06 -0.645 C 9.466 1.51 8.304 1 7.354 1.07 c -0.286 0.025 -0.556 0.098 -0.803 0.22 c -1.19 0.607 -1.67 2.327 -1.37 4.838 c 0.07 0.52 0.16 1.062 0.29 1.62 C 2.19 8.404 0.1 9.718 0.01 11.372 c -0.06 1.17 0.865 2.284 2.68 3.222 c 0.224 0.115 0.502 0.03 0.62 -0.2 c 0.114 -0.224 0.03 -0.5 -0.2 -0.616 C 1.66 13.032 0.88 12.19 0.927 11.42 c 0.05 -1.08 1.772 -2.19 4.76 -2.78 c 0.27 0.994 0.62 2.032 1.05 3.09 c -1.018 1.888 -1.756 3.747 -2.137 5.4 c -0.56 2.465 -0.26 4.22 0.86 4.948 c 0.36 0.234 0.78 0.35 1.247 0.35 c 0.935 0 2.067 -0.46 3.347 -1.372 c 0.21 -0.15 0.256 -0.435 0.11 -0.64 c -0.147 -0.206 -0.433 -0.256 -0.64 -0.106 c -1.544 1.103 -2.844 1.472 -3.562 1.003 c -0.76 -0.495 -0.926 -1.943 -0.46 -3.976 c 0.32 -1.386 0.907 -2.93 1.708 -4.52 c 0.2 0.438 0.41 0.876 0.63 1.313 c 1.425 2.796 3.17 5.227 4.91 6.845 c 1.386 1.29 2.674 1.963 3.735 1.963 c 0.35 0 0.68 -0.075 0.976 -0.223 c 1.145 -0.585 1.64 -2.21 1.398 -4.575 c -0.224 -2.213 -1.06 -4.91 -2.354 -7.6 c -0.11 -0.227 -0.384 -0.323 -0.61 -0.216 c -0.23 0.11 -0.33 0.385 -0.22 0.612 c 2.69 5.602 2.88 10.19 1.37 10.96 c -1.59 0.813 -5.424 -2.355 -8.39 -8.18 c -0.34 -0.655 -0.637 -1.3 -0.9 -1.93 c 0.34 -0.608 0.7 -1.22 1.095 -1.83 c 0.395 -0.604 0.806 -1.188 1.224 -1.745 h 0.394 c 0.54 0 1.126 0.01 1.734 0.048 c 6.53 0.343 10.975 2.56 10.884 4.334 c -0.04 0.765 -0.924 1.538 -2.425 2.12 c -0.234 0.096 -0.352 0.36 -0.26 0.596 c 0.07 0.18 0.24 0.292 0.426 0.292 c 0.058 0 0.114 -0.01 0.167 -0.03 c 1.905 -0.74 2.95 -1.756 3.01 -2.93 c 0.07 -1.33 -1.17 -2.61 -3.5 -3.6 v -0.01 z M 8.08 9.45 c -0.27 0.415 -0.52 0.827 -0.764 1.244 c -0.292 -0.768 -0.532 -1.51 -0.723 -2.215 c 0.713 -0.11 1.485 -0.19 2.31 -0.24 c -0.28 0.39 -0.554 0.794 -0.82 1.21 v -0.01 z M 12.005 10.625 A 1.375 1.375 0 1 0 12.005 13.375 A 1.375 1.375 0 1 0 12.005 10.625 z" stroke-linecap="round"/>
</g>
</svg>